<?xml version="1.0" standalone="no"?>
<!DOCTYPE svg PUBLIC "-//W3C//DTD SVG 20010904//EN"
 "http://www.w3.org/TR/2001/REC-SVG-20010904/DTD/svg10.dtd">
<svg version="1.0" xmlns="http://www.w3.org/2000/svg"
 width="1242.000000pt" height="1247.000000pt" viewBox="0 0 1242.000000 1247.000000"
 preserveAspectRatio="xMidYMid meet">

<g transform="translate(0.000000,1247.000000) scale(0.100000,-0.100000)"
fill="#000000" stroke="none">
<path d="M5890 12460 c-1030 -59 -1999 -352 -2860 -865 -1507 -899 -2562
-2387 -2905 -4096 -84 -424 -118 -768 -119 -1219 0 -342 10 -504 49 -815 234
-1842 1301 -3504 2895 -4507 840 -528 1789 -846 2785 -933 345 -30 868 -17
1237 30 2005 257 3755 1461 4719 3244 418 774 660 1631 720 2551 15 231 6 773
-16 990 -125 1240 -567 2338 -1322 3287 -156 197 -231 281 -423 477 -1065
1086 -2431 1724 -3955 1846 -185 15 -623 20 -805 10z m3026 -2662 c151 -63
293 -198 368 -351 46 -94 76 -209 76 -289 -1 -134 -63 -277 -172 -393 -145
-155 -315 -235 -503 -235 -102 0 -167 18 -283 76 -115 58 -193 132 -246 233
-41 79 -76 202 -76 270 l0 46 -661 149 c-363 81 -662 146 -664 144 -4 -4 -425
-1892 -425 -1907 0 -5 42 -12 93 -16 846 -61 1628 -313 2234 -719 l66 -45 40
32 c77 63 103 80 202 127 138 66 204 82 372 87 166 6 261 -9 391 -62 304 -123
508 -396 543 -727 6 -57 17 -133 25 -170 18 -88 18 -206 -2 -281 -46 -179
-191 -350 -379 -446 l-65 -34 0 -169 c0 -368 -54 -615 -200 -913 -112 -230
-251 -423 -443 -616 -599 -604 -1516 -986 -2587 -1081 -299 -26 -777 -14
-1110 28 -906 114 -1744 482 -2282 1002 -226 218 -382 428 -499 667 -141 289
-199 563 -199 932 l0 151 -67 37 c-267 146 -433 404 -462 715 -27 288 68 567
255 754 109 109 276 193 430 217 96 14 351 -1 449 -26 92 -25 253 -107 327
-169 l66 -55 143 86 c685 411 1423 645 2148 680 l154 8 232 1055 c128 580 235
1072 239 1093 10 54 69 113 122 122 34 5 180 -25 789 -164 410 -94 752 -171
758 -171 7 0 21 14 31 31 54 92 228 238 331 280 100 40 151 49 265 45 96 -2
125 -7 176 -28z"/>
<path d="M4670 6084 c-226 -60 -417 -250 -474 -471 -20 -77 -21 -231 -1 -308
100 -396 530 -595 895 -414 68 34 102 60 170 128 92 93 134 161 170 276 26 87
29 231 5 320 -61 226 -248 410 -480 470 -74 19 -212 18 -285 -1z"/>
<path d="M7507 6084 c-291 -70 -517 -373 -492 -661 30 -361 374 -647 715 -594
152 24 255 77 371 191 83 83 145 191 174 305 33 128 9 302 -57 428 -44 83
-192 231 -275 275 -126 67 -301 89 -436 56z"/>
<path d="M4801 4032 c-56 -61 -86 -114 -86 -154 0 -36 6 -45 54 -86 245 -213
512 -334 911 -411 796 -155 1700 3 2142 373 34 28 35 32 23 56 -7 14 -22 57
-34 96 -24 82 -47 115 -95 138 -64 30 -88 23 -149 -47 -160 -183 -455 -304
-887 -364 -177 -24 -623 -24 -805 1 -263 35 -468 92 -636 177 -93 46 -249 159
-249 179 0 6 -21 24 -47 40 -62 39 -106 40 -142 2z"/>
</g>
</svg>
